<?xml version="1.0" encoding="UTF-8" standalone="no"?>
<!DOCTYPE svg PUBLIC "-//W3C//DTD SVG 1.1//EN" "http://www.w3.org/Graphics/SVG/1.1/DTD/svg11.dtd">
<!-- Created with Vectornator (http://vectornator.io/) -->
<svg height="100%" stroke-miterlimit="10" style="fill-rule:nonzero;clip-rule:evenodd;stroke-linecap:round;stroke-linejoin:round;" version="1.1" viewBox="0 0 520 144" width="100%" xml:space="preserve" xmlns="http://www.w3.org/2000/svg" xmlns:vectornator="http://vectornator.io" xmlns:xlink="http://www.w3.org/1999/xlink">
<defs/>
<clipPath id="ArtboardFrame">
<rect height="144" width="520" x="0" y="0"/>
</clipPath>
<g clip-path="url(#ArtboardFrame)" id="Capa-1" vectornator:layerName="Capa 1">
<g fill="#fdf0d5" opacity="1" stroke="none" vectornator:layerName="Text 1">
<path d="M29.908 50.072L5.252 50.072L14.364 26.622L71.582 26.622L40.494 92.55L69.84 92.55L60.862 116L-1.18 116L29.908 50.072ZM53.894 105.28L55.234 102.064L22.672 102.064L53.224 37.342L21.332 37.342L20.126 40.558L47.73 40.558L17.178 105.28L53.894 105.28Z" fill="#124e66"/>
<path d="M102.402 116L102.402 26.622L127.192 26.622C135.589 26.622 143.071 27.56 149.637 29.436C156.203 31.312 161.742 34.126 166.253 37.878C170.764 41.63 174.204 46.2977 176.571 51.881C178.938 57.4643 180.122 63.9187 180.122 71.244C180.122 78.5693 178.938 85.0237 176.571 90.607C174.204 96.1903 170.764 100.858 166.253 104.61C161.742 108.362 156.203 111.198 149.637 113.119C143.071 115.04 135.589 116 127.192 116L102.402 116ZM130.944 90.54C137.644 90.54 142.825 88.9543 146.488 85.783C150.151 82.6117 151.982 77.7653 151.982 71.244C151.982 64.7227 150.151 59.8987 146.488 56.772C142.825 53.6453 137.644 52.082 130.944 52.082L130.944 90.54Z"/>
<path d="M187.492 26.622L240.154 26.622L240.154 50.072L216.034 50.072L216.034 59.988L239.752 59.988L239.752 82.232L216.034 82.232L216.034 92.55L241.092 92.55L241.092 116L187.492 116L187.492 26.622Z"/>
<path d="M246.72 88.262C248.685 88.8873 250.74 89.3787 252.884 89.736C254.671 90.1827 256.703 90.54 258.981 90.808C261.259 91.076 263.559 91.21 265.882 91.21C269.991 91.21 272.046 89.6913 272.046 86.654C272.046 85.4927 271.421 84.309 270.17 83.103C268.919 81.897 267.334 80.557 265.413 79.083C263.492 77.609 261.438 75.9787 259.249 74.192C257.06 72.4053 255.006 70.3507 253.085 68.028C251.164 65.7053 249.579 63.0923 248.328 60.189C247.077 57.2857 246.452 53.958 246.452 50.206C246.452 46.0073 247.211 42.3 248.73 39.084C250.249 35.868 252.348 33.188 255.028 31.044C257.708 28.9 260.857 27.2697 264.475 26.153C268.093 25.0363 271.957 24.478 276.066 24.478C278.21 24.478 280.354 24.5897 282.498 24.813C284.642 25.0363 286.563 25.2373 288.26 25.416C290.225 25.684 292.146 25.952 294.022 26.22L294.022 51.278C293.307 51.1887 292.503 51.0993 291.61 51.01C290.895 50.9207 290.091 50.8313 289.198 50.742C288.305 50.6527 287.367 50.608 286.384 50.608C285.848 50.608 285.178 50.6303 284.374 50.675C283.57 50.7197 282.811 50.8313 282.096 51.01C281.381 51.1887 280.756 51.5013 280.22 51.948C279.684 52.3947 279.416 53.02 279.416 53.824C279.416 54.5387 280.019 55.432 281.225 56.504C282.431 57.576 283.905 58.8267 285.647 60.256C287.389 61.6853 289.31 63.338 291.409 65.214C293.508 67.09 295.429 69.234 297.171 71.646C298.913 74.058 300.387 76.7827 301.593 79.82C302.799 82.8573 303.402 86.252 303.402 90.004C303.402 93.9347 302.777 97.6197 301.526 101.059C300.275 104.498 298.332 107.491 295.697 110.037C293.062 112.583 289.689 114.593 285.58 116.067C281.471 117.541 276.602 118.278 270.974 118.278C267.579 118.278 264.43 118.122 261.527 117.809C258.624 117.496 256.055 117.117 253.822 116.67C251.231 116.223 248.864 115.687 246.72 115.062L246.72 88.262Z"/>
<path d="M309.432 26.622L339.716 26.622L339.716 116L309.432 116L309.432 26.622Z"/>
<path d="M406.046 57.04C404.438 55.6107 402.428 54.5163 400.016 53.757C397.604 52.9977 395.237 52.618 392.914 52.618C390.323 52.618 387.956 53.087 385.812 54.025C383.668 54.963 381.814 56.2583 380.251 57.911C378.688 59.5637 377.459 61.5513 376.566 63.874C375.673 66.1967 375.226 68.698 375.226 71.378C375.226 74.058 375.717 76.5593 376.7 78.882C377.683 81.2047 379.023 83.1923 380.72 84.845C382.417 86.4977 384.405 87.793 386.683 88.731C388.961 89.669 391.395 90.138 393.986 90.138C397.023 90.138 399.793 89.4903 402.294 88.195C404.795 86.8997 406.939 85.1353 408.726 82.902L400.686 82.902L400.686 64.142L435.124 64.142L435.124 93.89C433.069 97.5527 430.613 100.88 427.754 103.873C424.895 106.866 421.702 109.434 418.173 111.578C414.644 113.722 410.825 115.375 406.716 116.536C402.607 117.697 398.363 118.278 393.986 118.278C387.554 118.278 381.479 117.072 375.762 114.66C370.045 112.248 365.064 108.943 360.821 104.744C356.578 100.545 353.228 95.5873 350.771 89.87C348.314 84.1527 347.086 77.9887 347.086 71.378C347.086 64.946 348.247 58.8713 350.57 53.154C352.893 47.4367 356.086 42.4563 360.151 38.213C364.216 33.9697 369.04 30.6197 374.623 28.163C380.206 25.7063 386.214 24.478 392.646 24.478C397.649 24.478 401.981 24.9693 405.644 25.952C409.307 26.9347 412.389 28.0513 414.89 29.302C417.838 30.7313 420.295 32.2947 422.26 33.992L406.046 57.04Z"/>
<path d="M442.494 26.622L465.944 26.622L490.6 61.06L490.6 26.622L518.606 26.622L518.606 116L495.022 116L470.5 81.696L470.5 116L442.494 116L442.494 26.622Z"/>
</g>
</g>
</svg>
